<svg width="95" height="92" viewBox="0 0 95 92" fill="none" xmlns="http://www.w3.org/2000/svg">
<path d="M43.6958 3.70822C44.8932 0.0229729 50.1068 0.0229598 51.3042 3.7082L59.736 29.6586C60.2715 31.3067 61.8073 32.4225 63.5402 32.4225L90.8261 32.4225C94.701 32.4225 96.3121 37.381 93.1772 39.6586L71.1025 55.6968C69.7006 56.7154 69.1139 58.5208 69.6494 60.1689L78.0812 86.1193C79.2786 89.8045 75.0607 92.869 71.9258 90.5914L49.8511 74.5532C48.4492 73.5346 46.5508 73.5346 45.1489 74.5532L23.0742 90.5914C19.9393 92.869 15.7214 89.8045 16.9188 86.1193L25.3506 60.1689C25.8861 58.5208 25.2994 56.7154 23.8975 55.6968L1.82279 39.6586C-1.31206 37.381 0.299031 32.4225 4.17392 32.4225L31.4598 32.4225C33.1927 32.4225 34.7285 31.3067 35.264 29.6586L43.6958 3.70822Z" fill="black"/>
</svg>
